<?xml version="1.0" encoding="UTF-8"?>
<svg id="Capa_2" data-name="Capa 2" xmlns="http://www.w3.org/2000/svg" viewBox="0 0 571.72 97.3">
  <defs>
    <style>
      .cls-1 {
        fill: #010101;
      }

      .cls-2 {
        fill: #fff;
      }

      .cls-3 {
        fill: #40ad54;
      }

      .cls-4 {
        fill: #1d1d1b;
      }
    </style>
  </defs>
  <g id="Capa_1-2" data-name="Capa 1">
    <g>
      <path class="cls-2" d="m95.34,51.51c-4.48-14.39-9.34-21.31-16.25-23.12-5.59-1.47-29.98-.31-30.46-.3-.03,0-.05,0-.08.01-1.28.2-2.46.44-3.5.7-9.35,2.37-23.47,17.99-25.29,19.53-1.36.76-15.85,6.52-18.39,12.13-1.68,3.69-1.51,9.39-1.08,13.52.3,2.91,2.76,5.13,5.69,5.12h1.92c.83,6.39,6.68,10.89,13.07,10.06,5.25-.68,9.38-4.81,10.06-10.06h36c.84,6.39,6.69,10.89,13.08,10.05,5.24-.69,9.37-4.81,10.05-10.05h1.12c2.85,0,5.27-2.1,5.67-4.93,1.08-7.58.53-15.31-1.61-22.67Z"/>
      <path d="m93.94,73.76c-.19,1.32-1.32,2.3-2.65,2.3h-1.11c-.84-6.39-6.69-10.89-13.08-10.05-5.24.69-9.37,4.81-10.05,10.05H31.03c-.83-6.39-6.68-10.89-13.07-10.06-5.25.68-9.38,4.81-10.06,10.06h-1.92c-1.37,0-2.52-1.03-2.66-2.39-.68-3.99-.4-8.09.81-11.95,1.87-4.11,14.31-9.18,17.23-10.79.09-.05.18-.11.26-.18.2-.17,15.23-16.73,24.18-19,.93-.25,2-.48,3.23-.65.13,0,24.11-1.14,29.28.22,5.69,1.5,10.04,8,14.12,21.09,2.01,6.93,2.52,14.2,1.5,21.34Z"/>
      <path d="m78.6,68.95c4.77,0,8.63,3.86,8.63,8.63s-3.86,8.63-8.63,8.63-8.63-3.86-8.63-8.63c0-4.76,3.87-8.62,8.63-8.63Z"/>
      <path d="m19.47,68.95c4.73,0,8.57,3.82,8.62,8.55,0,.03-.02.05-.02.08s.01.05.02.08c-.04,4.76-3.94,8.59-8.71,8.54-4.76-.04-8.59-3.94-8.54-8.71.04-4.73,3.9-8.55,8.63-8.54h0Z"/>
    </g>
    <g>
      <path class="cls-2" d="m214.53,51.51c-4.48-14.39-9.34-21.31-16.25-23.12-5.59-1.47-29.98-.31-30.46-.3-.03,0-.05,0-.08.01-1.28.2-2.46.44-3.5.7-9.35,2.37-23.47,17.99-25.29,19.53-1.36.76-15.85,6.52-18.39,12.13-1.68,3.69-1.51,9.39-1.08,13.52.3,2.91,2.76,5.13,5.69,5.12h1.92c.83,6.39,6.68,10.89,13.07,10.06,5.25-.68,9.38-4.81,10.06-10.06h36c.84,6.39,6.69,10.89,13.08,10.05,5.24-.69,9.37-4.81,10.05-10.05h1.12c2.85,0,5.27-2.1,5.67-4.93,1.08-7.58.53-15.31-1.61-22.67Z"/>
      <path d="m213.12,73.76c-.19,1.32-1.32,2.3-2.65,2.3h-1.11c-.84-6.39-6.69-10.89-13.08-10.05-5.24.69-9.37,4.81-10.05,10.05h-36.01c-.83-6.39-6.68-10.89-13.07-10.06-5.25.68-9.38,4.81-10.06,10.06h-1.92c-1.37,0-2.52-1.03-2.66-2.39-.68-3.99-.4-8.09.81-11.95,1.87-4.11,14.31-9.18,17.23-10.79.09-.05.18-.11.26-.18.2-.17,15.23-16.73,24.18-19,.93-.25,2-.48,3.23-.65.13,0,24.11-1.14,29.28.22,5.69,1.5,10.04,8,14.12,21.09,2.01,6.93,2.52,14.2,1.5,21.34Z"/>
      <path d="m197.78,68.95c4.77,0,8.63,3.86,8.63,8.63s-3.86,8.63-8.63,8.63-8.63-3.86-8.63-8.63c0-4.76,3.87-8.62,8.63-8.63Z"/>
      <path d="m138.65,68.95c4.73,0,8.57,3.82,8.62,8.55,0,.03-.02.05-.02.08s.01.05.02.08c-.04,4.76-3.94,8.59-8.71,8.54-4.76-.04-8.59-3.94-8.54-8.71.04-4.73,3.9-8.55,8.63-8.54h0Z"/>
    </g>
    <g>
      <path class="cls-4" d="m249.82,40.92h10.77l15.27,42.32h-11.01l-2.49-7.64h-14.8l-2.43,7.64h-10.54l15.21-42.32Zm10.12,27.17l-3.2-10.24c-.71-2.19-1.66-5.98-1.66-5.98h-.12s-1.01,3.79-1.72,5.98l-3.25,10.24h9.94Z"/>
      <path class="cls-4" d="m276.82,72.83v-19.89h9.59v17.88c0,3.31,1.48,5.15,4.56,5.15,3.31,0,5.33-2.49,5.33-6.1v-16.93h9.65v30.3h-9.23v-3.73h-.18c-2.19,2.96-4.85,4.62-9.06,4.62-6.98,0-10.65-4.56-10.65-11.3Z"/>
      <path class="cls-4" d="m312.93,75.25v-16.28h-4.03v-6.04h4.03v-9.59h9.41v9.59h5.5v6.04h-5.5v14.21c0,2.37,1.3,2.96,3.37,2.96.83,0,1.78-.06,2.13-.06v7.04c-.83.24-2.66.47-5.27.47-5.62,0-9.65-1.83-9.65-8.35Z"/>
      <path class="cls-4" d="m329.68,68.15c0-9.12,6.51-16.04,16.22-16.04s16.16,6.93,16.16,16.04-6.39,16.04-16.16,16.04-16.22-6.93-16.22-16.04Zm22.61,0c0-5.5-2.25-9.23-6.45-9.23s-6.39,3.73-6.39,9.23,2.19,9.17,6.39,9.17,6.45-3.67,6.45-9.17Z"/>
      <path class="cls-3" d="m378.16,40.92h10.77l15.27,42.32h-11.01l-2.49-7.64h-14.8l-2.43,7.64h-10.54l15.21-42.32Zm10.12,27.17l-3.2-10.24c-.71-2.19-1.66-5.98-1.66-5.98h-.12s-1.01,3.79-1.72,5.98l-3.25,10.24h9.94Z"/>
      <path class="cls-3" d="m406.63,40.92h9.77v42.32h-9.77v-42.32Z"/>
      <path class="cls-3" d="m419.71,68.03c0-9.06,6.33-15.98,15.57-15.98,4.32,0,7.75,1.42,10.36,3.79,3.61,3.31,5.39,8.58,5.33,14.74h-21.78c.59,4.08,2.84,6.63,6.81,6.63,2.54,0,4.2-1.12,5.03-3.02h9.41c-.65,2.72-2.43,5.33-5.09,7.16-2.54,1.78-5.62,2.78-9.47,2.78-10,0-16.16-6.92-16.16-16.1Zm21.49-3.2c-.35-3.61-2.6-5.92-5.74-5.92-3.67,0-5.56,2.31-6.21,5.92h11.96Z"/>
      <path class="cls-3" d="m454.23,52.94h9.23v4.74h.18c2.13-3.61,4.62-5.21,8.29-5.21.89,0,1.48.06,1.89.24v8.29h-.24c-5.92-.83-9.71,2.07-9.71,8.64v13.61h-9.65v-30.3Z"/>
      <path class="cls-3" d="m479.86,75.25v-16.28h-4.02v-6.04h4.02v-9.59h9.41v9.59h5.5v6.04h-5.5v14.21c0,2.37,1.3,2.96,3.37,2.96.83,0,1.78-.06,2.13-.06v7.04c-.83.24-2.66.47-5.27.47-5.62,0-9.65-1.83-9.65-8.35Z"/>
      <path class="cls-1" d="m498.44,73.3h10.12v9.94h-10.12v-9.94Z"/>
      <path class="cls-3" d="m510.52,68.03c0-9.06,6.33-15.98,15.57-15.98,4.32,0,7.75,1.42,10.36,3.79,3.61,3.31,5.39,8.58,5.33,14.74h-21.78c.59,4.08,2.84,6.63,6.81,6.63,2.55,0,4.2-1.12,5.03-3.02h9.41c-.65,2.72-2.43,5.33-5.09,7.16-2.55,1.78-5.62,2.78-9.47,2.78-10,0-16.16-6.92-16.16-16.1Zm21.49-3.2c-.36-3.61-2.6-5.92-5.74-5.92-3.67,0-5.56,2.31-6.21,5.92h11.96Z"/>
      <path class="cls-3" d="m543.19,73.42h9.12c.35,3.02,2.37,4.5,5.56,4.5,2.9,0,4.74-1.07,4.74-3.02,0-2.72-3.67-3.02-7.69-3.73-5.27-.89-10.89-2.31-10.89-9.41,0-6.39,5.92-9.71,13.08-9.71,8.58,0,13.2,3.73,13.67,9.71h-8.88c-.35-2.72-2.19-3.55-4.85-3.55-2.37,0-4.2.89-4.2,2.78,0,2.13,3.43,2.43,7.28,3.14,5.33.89,11.6,2.25,11.6,10,0,6.63-5.86,10.06-13.79,10.06-8.88,0-14.44-4.08-14.74-10.77Z"/>
    </g>
    <g>
      <path class="cls-3" d="m120.97,25.48c-5.87,0-10.61,4.74-10.61,10.61s4.74,10.61,10.61,10.61,10.61-4.74,10.61-10.61-4.74-10.61-10.61-10.61Zm0,15.29c-2.58,0-4.68-2.1-4.68-4.68s2.1-4.68,4.68-4.68,4.68,2.1,4.68,4.68-2.1,4.68-4.68,4.68Z"/>
      <path class="cls-3" d="m153.27,13.36c-17.87-17.81-46.79-17.81-64.66,0-1.16,1.16-1.16,3.02,0,4.18,1.19,1.16,3.05,1.16,4.21,0,15.53-15.53,40.77-15.53,56.27,0,1.16,1.16,3.02,1.16,4.18,0,1.16-1.16,1.16-3.02,0-4.18Z"/>
      <path class="cls-3" d="m141.21,22.57c-11.17-11.14-29.28-11.14-40.48,0-1.16,1.16-1.16,3.05.03,4.18,1.16,1.16,3.02,1.16,4.18,0,8.86-8.83,23.23-8.83,32.09,0,.53.56,1.27.89,2.07.89,1.63,0,2.96-1.33,2.96-2.96,0-.8-.33-1.54-.86-2.1Z"/>
    </g>
    <g>
      <path class="cls-2" d="m154.91,59.55c-4.48-14.39-9.34-21.31-16.25-23.12-5.59-1.47-29.98-.31-30.46-.3-.03,0-.05,0-.08.01-1.28.2-2.46.44-3.5.7-9.35,2.37-23.47,17.99-25.29,19.53-1.36.76-15.85,6.52-18.39,12.13-1.68,3.69-1.51,9.39-1.08,13.52.3,2.91,2.76,5.13,5.69,5.12h1.92c.83,6.39,6.68,10.89,13.07,10.06,5.25-.68,9.38-4.81,10.06-10.06h36c.84,6.39,6.69,10.89,13.08,10.05,5.24-.69,9.37-4.81,10.05-10.05h1.12c2.85,0,5.27-2.1,5.67-4.93,1.08-7.58.53-15.31-1.61-22.67Z"/>
      <path class="cls-3" d="m153.51,81.8c-.19,1.32-1.32,2.3-2.65,2.3h-1.11c-.84-6.39-6.69-10.89-13.08-10.05-5.24.69-9.37,4.81-10.05,10.05h-36.01c-.83-6.39-6.68-10.89-13.07-10.06-5.25.68-9.38,4.81-10.06,10.06h-1.92c-1.37,0-2.52-1.03-2.66-2.39-.68-3.99-.4-8.09.81-11.95,1.87-4.11,14.31-9.18,17.23-10.79.09-.05.18-.11.26-.18.2-.17,15.23-16.73,24.18-19,.93-.25,2-.48,3.23-.65.13,0,24.11-1.14,29.28.22,5.69,1.5,10.04,8,14.12,21.09,2.01,6.93,2.52,14.2,1.5,21.34Z"/>
      <path class="cls-3" d="m138.17,76.99c4.77,0,8.63,3.86,8.63,8.63s-3.86,8.63-8.63,8.63-8.63-3.86-8.63-8.63c0-4.76,3.87-8.62,8.63-8.63Z"/>
      <path class="cls-3" d="m79.03,76.99c4.73,0,8.57,3.82,8.62,8.55,0,.03-.02.05-.02.08s.01.05.02.08c-.04,4.76-3.94,8.59-8.71,8.54-4.76-.04-8.59-3.94-8.54-8.71.04-4.73,3.9-8.55,8.63-8.54h0Z"/>
    </g>
  </g>
</svg>